<svg width="18" height="18" viewBox="0 0 18 18" fill="none" xmlns="http://www.w3.org/2000/svg">
<g clip-path="url(#clip0_70_76)">
<path d="M8.99576 17.7665C7.78503 17.7665 6.65068 17.5373 5.5927 17.0791C4.53473 16.6265 3.60405 15.9985 2.80067 15.1951C1.99728 14.3917 1.36646 13.461 0.908193 12.4031C0.455583 11.3451 0.229279 10.2107 0.229279 9C0.229279 7.78927 0.455583 6.65492 0.908193 5.59694C1.36646 4.53331 1.99728 3.60263 2.80067 2.80491C3.60405 2.00153 4.53473 1.37353 5.5927 0.920921C6.65068 0.462654 7.78503 0.233521 8.99576 0.233521C10.2065 0.233521 11.3408 0.462654 12.3988 0.920921C13.4624 1.37353 14.396 2.00153 15.1993 2.80491C16.0027 3.60263 16.6307 4.53331 17.0833 5.59694C17.5416 6.65492 17.7707 7.78927 17.7707 9C17.7707 10.2107 17.5416 11.3451 17.0833 12.4031C16.6307 13.461 16.0027 14.3917 15.1993 15.1951C14.396 15.9985 13.4624 16.6265 12.3988 17.0791C11.3408 17.5373 10.2065 17.7665 8.99576 17.7665ZM5.83881 12.437C5.83881 13.0933 6.14432 13.4214 6.75534 13.4214H11.2362C11.8529 13.4214 12.1612 13.0933 12.1612 12.437V9.00849C12.1612 8.40878 11.9123 8.08629 11.4144 8.04103V7.04812C11.4144 6.23342 11.1909 5.57997 10.744 5.08776C10.297 4.58989 9.71428 4.34095 8.99576 4.34095C8.27724 4.34095 7.69451 4.58989 7.24755 5.08776C6.8006 5.57997 6.57713 6.23342 6.57713 7.04812V8.03255C6.08491 8.08347 5.83881 8.40878 5.83881 9.00849V12.437ZM7.61247 8.01557V6.95477C7.61247 6.47387 7.73977 6.08633 7.99436 5.79213C8.24895 5.49228 8.58275 5.34235 8.99576 5.34235C9.41442 5.34235 9.74822 5.49228 9.99716 5.79213C10.2517 6.08633 10.379 6.47387 10.379 6.95477V8.01557H7.61247Z" fill="white"/>
</g>
<defs>
<clipPath id="clip0_70_76">
<rect width="18" height="18" fill="white"/>
</clipPath>
</defs>
</svg>
