<?xml version="1.0" encoding="utf-8"?>
<!-- Generator: Adobe Illustrator 26.0.1, SVG Export Plug-In . SVG Version: 6.00 Build 0)  -->
<svg version="1.1" id="Layer_1" xmlns="http://www.w3.org/2000/svg" xmlns:xlink="http://www.w3.org/1999/xlink" x="0px" y="0px"
	 viewBox="0 0 250 250" style="enable-background:new 0 0 250 250;" xml:space="preserve">
<path d="M30.6,1.1C14.4,1.1,1.1,14.4,1.1,30.6v188.8c0,16.2,13.3,29.5,29.5,29.5h188.8c16.2,0,29.5-13.3,29.5-29.5V30.6
	c0-16.2-13.3-29.5-29.5-29.5L30.6,1.1z M54.2,71.9h141.6c1.1,0,2.1,0.1,3,0.4l-58,58c-8.7,8.7-23,8.7-31.7,0l-58-58
	C52.1,72,53.1,71.9,54.2,71.9z M42.8,80.7L87.2,125l-44.4,44.3c-0.3-0.9-0.4-1.9-0.4-3V83.7C42.4,82.6,42.5,81.6,42.8,80.7z
	 M207.2,80.7c0.3,0.9,0.4,1.9,0.4,3v82.6c0,1.1-0.1,2.1-0.4,3L162.8,125L207.2,80.7z M95.5,133.3l5.3,5.3c6.7,6.7,15.5,10,24.2,10
	c8.8,0,17.5-3.3,24.2-10l5.3-5.3l44.4,44.4c-0.9,0.3-1.9,0.4-3,0.4H54.2c-1.1,0-2.1-0.1-3-0.4L95.5,133.3z"/>
</svg>
