<svg width="18" height="18" viewBox="0 0 18 18" fill="none" xmlns="http://www.w3.org/2000/svg">
<path d="M9.35139 16.8894C8.22119 16.8894 7.16129 16.6758 6.17171 16.2487C5.18212 15.8269 4.31233 15.2409 3.56233 14.4909C2.81233 13.7409 2.22379 12.8711 1.79671 11.8816C1.37483 10.892 1.16389 9.83207 1.16389 8.70186C1.16389 7.8477 1.28629 7.0352 1.53108 6.26436C1.78108 5.48832 2.13004 4.77478 2.57796 4.12374C3.02587 3.4727 3.54671 2.89978 4.14046 2.40499C4.73942 1.90499 5.39046 1.50134 6.09358 1.19405C6.27587 1.11072 6.43473 1.08988 6.57014 1.13155C6.71077 1.17322 6.80452 1.26176 6.85139 1.39718C6.90348 1.52738 6.89306 1.68884 6.82014 1.88155C6.67952 2.23572 6.56494 2.64718 6.47639 3.11593C6.38785 3.57947 6.34358 4.02999 6.34358 4.46749C6.34358 6.02999 6.63264 7.36332 7.21077 8.46749C7.78889 9.56645 8.62744 10.405 9.72639 10.9831C10.8254 11.5612 12.1561 11.8503 13.7186 11.8503C14.1613 11.8503 14.6014 11.8112 15.0389 11.7331C15.4816 11.655 15.8462 11.5664 16.1326 11.4675C16.3097 11.4102 16.4582 11.4102 16.578 11.4675C16.703 11.5196 16.7837 11.6133 16.8201 11.7487C16.8566 11.8789 16.8306 12.0352 16.742 12.2175C16.3358 13.0925 15.7681 13.8842 15.0389 14.5925C14.3149 15.2956 13.4686 15.8529 12.4998 16.2644C11.5363 16.681 10.4868 16.8894 9.35139 16.8894ZM9.35139 15.6784C10.1222 15.6784 10.8488 15.5612 11.5311 15.3269C12.2186 15.0977 12.841 14.7774 13.3983 14.3659C13.9608 13.9545 14.4451 13.4805 14.8514 12.9441C14.6847 12.9753 14.505 13.0039 14.3123 13.03C14.1248 13.0508 13.9269 13.0612 13.7186 13.0612C11.9321 13.0612 10.3957 12.7175 9.10921 12.03C7.82796 11.3425 6.84358 10.3581 6.15608 9.07686C5.47379 7.79041 5.13264 6.25395 5.13264 4.46749C5.13264 4.2227 5.14567 3.98832 5.17171 3.76436C5.19775 3.5352 5.23681 3.30603 5.28889 3.07686C4.87744 3.37374 4.49462 3.7227 4.14046 4.12374C3.78629 4.51957 3.47639 4.95707 3.21077 5.43624C2.95035 5.91541 2.74462 6.43103 2.59358 6.98311C2.44775 7.52999 2.37483 8.10291 2.37483 8.70186C2.37483 9.66541 2.55452 10.5691 2.91389 11.4128C3.27848 12.2513 3.78108 12.9909 4.42171 13.6316C5.06233 14.2722 5.80192 14.7722 6.64046 15.1316C7.48421 15.4961 8.38785 15.6784 9.35139 15.6784Z" fill="black"/>
</svg>
