<svg id="Layer_1" data-name="Layer 1" xmlns="http://www.w3.org/2000/svg" viewBox="0 0 64 64"><defs><style>.cls-1{fill:none;stroke:#fff;stroke-linecap:round;stroke-linejoin:round;stroke-width:4px;}</style></defs><path class="cls-1" d="M52.71,34.72V28.5l-5.56-.57a15.69,15.69,0,0,0-1.83-4.42l3.52-4.34-4.4-4.4-4.33,3.52a15.93,15.93,0,0,0-4.42-1.83l-.58-5.56H28.89l-.57,5.56a15.69,15.69,0,0,0-4.42,1.83l-4.34-3.52-4.4,4.4,3.52,4.34a15.69,15.69,0,0,0-1.83,4.42l-5.56.57v6.22l5.56.58a15.93,15.93,0,0,0,1.83,4.42l-3.52,4.33,4.4,4.4,4.34-3.52a15.4,15.4,0,0,0,4.42,1.83l.57,5.56h6.22l.58-5.56a15.93,15.93,0,0,0,4.42-1.83l4.33,3.52,4.4-4.4-3.52-4.34a15.75,15.75,0,0,0,1.83-4.41Z"/><circle class="cls-1" cx="32" cy="31.61" r="6.55"/></svg>