<svg id="Layer_1" data-name="Layer 1" xmlns="http://www.w3.org/2000/svg" viewBox="0 0 64 64"><defs><style>.cls-1{fill:#fff;}</style></defs><path class="cls-1" d="M52.71,33.82V29.41a1,1,0,0,0-.9-1l-4-.41a1,1,0,0,1-.86-.74,15.14,15.14,0,0,0-1.31-3.16A1,1,0,0,1,45.75,23l2.52-3.1a1,1,0,0,0-.07-1.34l-3.12-3.12a1,1,0,0,0-1.34-.07l-3.1,2.52a1,1,0,0,1-1.13.09,15.14,15.14,0,0,0-3.16-1.31,1,1,0,0,1-.74-.86l-.41-4a1,1,0,0,0-1-.9H29.8a1,1,0,0,0-1,.9l-.41,4a1,1,0,0,1-.74.86A15.14,15.14,0,0,0,24.49,18a1,1,0,0,1-1.13-.09l-3.1-2.52a1,1,0,0,0-1.34.07L15.8,18.53a1,1,0,0,0-.07,1.34L18.25,23a1,1,0,0,1,.09,1.13A15.14,15.14,0,0,0,17,27.26a1,1,0,0,1-.86.74l-4,.41a1,1,0,0,0-.9,1v4.41a1,1,0,0,0,.9,1l4,.41A1,1,0,0,1,17,36a15.14,15.14,0,0,0,1.31,3.16,1,1,0,0,1-.09,1.13l-2.52,3.1a1,1,0,0,0,.07,1.34l3.12,3.12a1,1,0,0,0,1.34.07l3.1-2.52a1,1,0,0,1,1.13-.09,15.14,15.14,0,0,0,3.16,1.31,1,1,0,0,1,.74.86l.41,4a1,1,0,0,0,1,.9h4.41a1,1,0,0,0,1-.9l.41-4a1,1,0,0,1,.74-.86,15.14,15.14,0,0,0,3.16-1.31,1,1,0,0,1,1.13.09l3.1,2.52a1,1,0,0,0,1.34-.07l3.12-3.12a1,1,0,0,0,.07-1.34l-2.52-3.1a1,1,0,0,1-.09-1.13A15.14,15.14,0,0,0,47,36a1,1,0,0,1,.86-.74l4-.41A1,1,0,0,0,52.71,33.82ZM33.56,39.41a8,8,0,1,1,6.24-6.24A8,8,0,0,1,33.56,39.41Z"/></svg>