<svg width="18" height="18" viewBox="0 0 18 18" fill="none" xmlns="http://www.w3.org/2000/svg">
<g clip-path="url(#clip0_44_410)">
<path d="M9.00391 3.56641C8.81641 3.56641 8.65495 3.5013 8.51953 3.37109C8.38932 3.23568 8.32422 3.07422 8.32422 2.88672V1.20703C8.32422 1.01953 8.38932 0.860677 8.51953 0.730469C8.65495 0.595052 8.81641 0.527344 9.00391 0.527344C9.1862 0.527344 9.34245 0.595052 9.47266 0.730469C9.60807 0.860677 9.67578 1.01953 9.67578 1.20703V2.88672C9.67578 3.07422 9.60807 3.23568 9.47266 3.37109C9.34245 3.5013 9.1862 3.56641 9.00391 3.56641ZM12.832 5.16797C12.7018 5.03776 12.6367 4.87891 12.6367 4.69141C12.6367 4.50391 12.7018 4.34505 12.832 4.21484L14.0352 3.01172C14.1654 2.88151 14.3242 2.81641 14.5117 2.81641C14.6992 2.81641 14.8581 2.88151 14.9883 3.01172C15.1185 3.14193 15.1836 3.30339 15.1836 3.49609C15.1836 3.68359 15.1185 3.84245 14.9883 3.97266L13.793 5.16797C13.6628 5.30339 13.5013 5.37109 13.3086 5.37109C13.1211 5.36589 12.9622 5.29818 12.832 5.16797ZM14.418 9.00391C14.418 8.81641 14.4831 8.65755 14.6133 8.52734C14.7487 8.39193 14.9102 8.32422 15.0977 8.32422H16.7773C16.9596 8.32422 17.1159 8.39193 17.2461 8.52734C17.3815 8.65755 17.4492 8.81641 17.4492 9.00391C17.4492 9.1862 17.3815 9.34505 17.2461 9.48047C17.1159 9.61068 16.9596 9.67578 16.7773 9.67578H15.0977C14.9102 9.67578 14.7487 9.61068 14.6133 9.48047C14.4831 9.34505 14.418 9.1862 14.418 9.00391ZM12.832 12.8398C12.9622 12.7148 13.1211 12.6523 13.3086 12.6523C13.4961 12.6523 13.6549 12.7148 13.7852 12.8398L14.9883 14.043C15.1185 14.168 15.1836 14.3242 15.1836 14.5117C15.1836 14.6992 15.1185 14.8607 14.9883 14.9961C14.8581 15.1211 14.6992 15.1836 14.5117 15.1836C14.3242 15.1888 14.1654 15.1289 14.0352 15.0039L12.832 13.793C12.7018 13.668 12.6367 13.5117 12.6367 13.3242C12.6367 13.1367 12.7018 12.9753 12.832 12.8398ZM9.00391 14.4414C9.1862 14.4414 9.34245 14.5091 9.47266 14.6445C9.60807 14.7747 9.67578 14.931 9.67578 15.1133V16.8008C9.67578 16.9831 9.60807 17.1393 9.47266 17.2695C9.34245 17.4049 9.1862 17.4727 9.00391 17.4727C8.81641 17.4727 8.65495 17.4049 8.51953 17.2695C8.38932 17.1393 8.32422 16.9831 8.32422 16.8008V15.1133C8.32422 14.931 8.38932 14.7747 8.51953 14.6445C8.65495 14.5091 8.81641 14.4414 9.00391 14.4414ZM5.16797 12.8398C5.29297 12.9753 5.35547 13.1367 5.35547 13.3242C5.35547 13.5117 5.29036 13.668 5.16016 13.793L3.96484 14.9961C3.83464 15.1211 3.67318 15.181 3.48047 15.1758C3.29297 15.1758 3.13411 15.1133 3.00391 14.9883C2.87891 14.8529 2.81641 14.6914 2.81641 14.5039C2.81641 14.3164 2.88151 14.1602 3.01172 14.0352L4.20703 12.8398C4.33724 12.7148 4.49609 12.6523 4.68359 12.6523C4.8763 12.6523 5.03776 12.7148 5.16797 12.8398ZM3.58203 9.00391C3.58203 9.1862 3.51432 9.34505 3.37891 9.48047C3.2487 9.61068 3.08984 9.67578 2.90234 9.67578H1.22266C1.04036 9.67578 0.88151 9.61068 0.746094 9.48047C0.615885 9.34505 0.550781 9.1862 0.550781 9.00391C0.550781 8.81641 0.615885 8.65755 0.746094 8.52734C0.88151 8.39193 1.04036 8.32422 1.22266 8.32422H2.90234C3.08984 8.32422 3.2487 8.39193 3.37891 8.52734C3.51432 8.65755 3.58203 8.81641 3.58203 9.00391ZM5.16016 5.16797C5.02995 5.29818 4.87109 5.36328 4.68359 5.36328C4.49609 5.36328 4.33724 5.29818 4.20703 5.16797L3.01172 3.96484C2.88672 3.83984 2.82422 3.68359 2.82422 3.49609C2.82422 3.30339 2.88932 3.14193 3.01953 3.01172C3.14974 2.88151 3.30859 2.81901 3.49609 2.82422C3.6888 2.82422 3.84766 2.88672 3.97266 3.01172L5.16797 4.21484C5.29297 4.33984 5.35547 4.4987 5.35547 4.69141C5.35547 4.88411 5.29036 5.04297 5.16016 5.16797ZM9.00391 12.9805C8.45182 12.9805 7.9362 12.8789 7.45703 12.6758C6.97786 12.4674 6.55339 12.181 6.18359 11.8164C5.81901 11.4518 5.53255 11.0299 5.32422 10.5508C5.12109 10.0664 5.01953 9.55078 5.01953 9.00391C5.01953 8.45182 5.12109 7.9362 5.32422 7.45703C5.53255 6.97786 5.81901 6.55599 6.18359 6.19141C6.55339 5.82682 6.97786 5.54036 7.45703 5.33203C7.9362 5.1237 8.45182 5.01953 9.00391 5.01953C9.55078 5.01953 10.0638 5.1237 10.543 5.33203C11.0273 5.54036 11.4518 5.82682 11.8164 6.19141C12.181 6.55599 12.4648 6.97786 12.668 7.45703C12.8763 7.9362 12.9805 8.45182 12.9805 9.00391C12.9805 9.55078 12.8763 10.0664 12.668 10.5508C12.4648 11.0299 12.181 11.4518 11.8164 11.8164C11.4518 12.181 11.0273 12.4674 10.543 12.6758C10.0638 12.8789 9.55078 12.9805 9.00391 12.9805ZM9.00391 11.793C9.51953 11.793 9.98828 11.668 10.4102 11.418C10.832 11.168 11.168 10.832 11.418 10.4102C11.668 9.98828 11.793 9.51953 11.793 9.00391C11.793 8.48828 11.668 8.01953 11.418 7.59766C11.168 7.17578 10.832 6.83984 10.4102 6.58984C9.98828 6.33464 9.51953 6.20703 9.00391 6.20703C8.48828 6.20703 8.01693 6.33464 7.58984 6.58984C7.16797 6.83984 6.83203 7.17578 6.58203 7.59766C6.33203 8.01953 6.20703 8.48828 6.20703 9.00391C6.20703 9.51953 6.33203 9.98828 6.58203 10.4102C6.83203 10.832 7.16797 11.168 7.58984 11.418C8.01693 11.668 8.48828 11.793 9.00391 11.793Z" fill="black"/>
</g>
<defs>
<clipPath id="clip0_44_410">
<rect width="18" height="18" fill="white"/>
</clipPath>
</defs>
</svg>
