<?xml version="1.0" encoding="utf-8"?>
<!-- Generator: Adobe Illustrator 26.0.1, SVG Export Plug-In . SVG Version: 6.00 Build 0)  -->
<svg version="1.1" id="Layer_1" xmlns="http://www.w3.org/2000/svg" xmlns:xlink="http://www.w3.org/1999/xlink" x="0px" y="0px"
	 viewBox="0 0 250 250" style="enable-background:new 0 0 250 250;" xml:space="preserve">
<style type="text/css">
	.st0{fill:#FFFFFF;}
</style>
<path class="st0" d="M111,4C53.8,10.2,7.7,56.3,1.4,112.3c-6.2,58.5,27.4,110.8,78.5,130.8c3.7,1.2,7.5-1.2,7.5-6.2V217
	c0,0-5,1.2-11.2,1.2c-17.4,0-24.9-14.9-26.2-23.7c-1.2-5-3.7-8.7-7.5-12.5c-3.7-1.2-5-1.2-5-2.5c0-2.5,3.7-2.5,5-2.5
	c7.5,0,13.7,8.7,16.2,12.5c6.2,10,13.7,12.5,17.4,12.5c5,0,8.7-1.2,11.2-2.5c1.2-8.7,5-17.4,12.5-22.4C71.2,170.9,50,154.7,50,127.3
	c0-13.7,6.2-27.4,14.9-37.4c-1.2-2.5-2.5-8.7-2.5-17.4c0-5,0-12.5,3.7-19.9c0,0,17.4,0,34.9,16.2c6.2-2.5,14.9-3.7,23.7-3.7
	s17.4,1.2,24.9,3.7c16.2-16.2,34.9-16.2,34.9-16.2C187,60,187,67.5,187,72.5c0,10-1.2,14.9-2.5,17.4c8.7,10,14.9,22.4,14.9,37.4
	c0,27.4-21.2,43.6-49.8,49.8c7.5,6.2,12.5,17.4,12.5,28.6v32.4c0,3.7,3.7,7.5,8.7,6.2c46.1-18.7,78.5-63.5,78.5-115.8
	C249.3,53.8,185.8-4.7,111,4z"/>
</svg>
