<?xml version="1.0" encoding="utf-8"?>
<!-- Generator: Adobe Illustrator 26.0.1, SVG Export Plug-In . SVG Version: 6.00 Build 0)  -->
<svg version="1.1" id="Layer_1" xmlns="http://www.w3.org/2000/svg" xmlns:xlink="http://www.w3.org/1999/xlink" x="0px" y="0px"
	 viewBox="0 0 250 250" style="enable-background:new 0 0 250 250;" xml:space="preserve">
<style type="text/css">
	.st0{fill:#888888;}
</style>
<path class="st0" d="M219.4,1.1H30.6C14.3,1.1,1.1,14.3,1.1,30.6v188.8c0,16.3,13.2,29.5,29.5,29.5h188.8
	c16.3,0,29.5-13.2,29.5-29.5V30.6C248.9,14.3,235.7,1.1,219.4,1.1z M77.8,95.5v112.1H42.4V95.5H77.8z M42.4,62.9
	c0-8.3,7.1-14.6,17.7-14.6s17.3,6.3,17.7,14.6c0,8.3-6.6,14.9-17.7,14.9C49.5,77.8,42.4,71.1,42.4,62.9z M207.6,207.6h-35.4
	c0,0,0-54.6,0-59c0-11.8-5.9-23.6-20.7-23.8H151c-14.3,0-20.2,12.2-20.2,23.8c0,5.4,0,59,0,59H95.5V95.5h35.4v15.1
	c0,0,11.4-15.1,34.3-15.1c23.4,0,42.4,16.1,42.4,48.7V207.6z"/>
</svg>
