<?xml version="1.0" encoding="utf-8"?>
<!-- Generator: Adobe Illustrator 26.0.1, SVG Export Plug-In . SVG Version: 6.00 Build 0)  -->
<svg version="1.1" id="Logo" xmlns="http://www.w3.org/2000/svg" xmlns:xlink="http://www.w3.org/1999/xlink" x="0px" y="0px"
	 viewBox="0 0 248 204" style="enable-background:new 0 0 248 204;" xml:space="preserve">
<style type="text/css">
	.st0{fill:#888888;}
</style>
<g id="Logo_1_">
	<path id="white_background" class="st0" d="M221.3,51.7c0.1,2.1,0.1,4.3,0.1,6.5c0,66.3-50.5,142.7-142.7,142.7l0,0
		c-27.2,0-53.9-7.7-76.9-22.5c4,0.4,7.9,0.8,11.9,0.8c22.6,0,44.6-7.6,62.3-21.5c-21.4-0.4-40.3-14.4-46.8-34.8
		c7.5,1.5,15.2,1.2,22.6-0.9c-23.4-4.7-40.2-25.3-40.2-49.2c0-0.2,0-0.4,0-0.6c7,3.9,14.8,6,22.7,6.3C12.4,63.6,5.6,34.2,18.9,11.3
		c25.5,31.3,63,50.4,103.4,52.4c-4.1-17.5,1.5-35.7,14.5-47.9c20.3-19,52-18,70.9,2.1c11.3-2.3,22-6.3,31.8-12.2
		c-3.8,11.6-11.6,21.4-22.1,27.8c10-1.2,19.6-3.9,28.8-7.9C239.6,35.7,231.1,44.5,221.3,51.7z"/>
</g>
</svg>
