<svg id="Layer_1" data-name="Layer 1" xmlns="http://www.w3.org/2000/svg" viewBox="0 0 250 250"><defs><style>.cls-1{fill:#57a4d1;}</style></defs><path class="cls-1" d="M223.8,194.11a3,3,0,0,0-5.2,0l-1.88,3.26-25.37-14.65V116a6,6,0,0,0-3-5.2L130.58,77.47V48.18h3.76a3,3,0,0,0,2.6-4.51l-12.36-21.4-12.36,21.4a3,3,0,0,0,2.6,4.51h3.76V77.47L60.82,110.82a6,6,0,0,0-3,5.2v66.7L32.45,197.37l-1.88-3.26a3,3,0,0,0-5.2,0L13,215.52H37.73a3,3,0,0,0,2.6-4.5l-1.88-3.26,25.37-14.65,57.76,33.35a6,6,0,0,0,6,0l57.77-33.35,25.37,14.65L208.84,211a3,3,0,0,0,2.6,4.5h24.71Zm-44.45-74.63v56.31l-48.77-28.15V91.33Zm-109.53,0,48.76-28.15v56.31L69.82,175.79Zm54.76,94.86L75.82,186.18,124.58,158l48.77,28.15Z"/></svg>