<svg id="Layer_1" data-name="Layer 1" xmlns="http://www.w3.org/2000/svg" xmlns:xlink="http://www.w3.org/1999/xlink" viewBox="0 0 250 250"><defs><style>.cls-1{fill:url(#linear-gradient);}</style><linearGradient id="linear-gradient" x1="13.43" y1="118.89" x2="236.57" y2="118.89" gradientUnits="userSpaceOnUse"><stop offset="0" stop-color="#afcee0"/><stop offset="1" stop-color="#c7eae6"/></linearGradient></defs><path class="cls-1" d="M236.57,215.51l-20.64-35.75a5,5,0,0,0-8.57,0l-3.18,5.51L135,145.33V65.44h6.36A4.94,4.94,0,0,0,145.64,58L125,22.27,104.36,58a4.94,4.94,0,0,0,4.28,7.42H115v79.89L45.82,185.27l-3.18-5.51a5,5,0,0,0-8.57,0L13.43,215.52H54.71A5,5,0,0,0,59,208.1l-3.18-5.51L125,162.65l69.18,39.94L191,208.1a5,5,0,0,0,4.29,7.42Z"/></svg>