<svg id="Layer_1" data-name="Layer 1" xmlns="http://www.w3.org/2000/svg" xmlns:xlink="http://www.w3.org/1999/xlink" viewBox="0 0 250 250"><defs><style>.cls-1{fill:url(#New_Gradient_Swatch_1);}</style><linearGradient id="New_Gradient_Swatch_1" x1="13.43" y1="124.77" x2="236.57" y2="124.77" gradientUnits="userSpaceOnUse"><stop offset="0" stop-color="#a6cbdd"/><stop offset="1" stop-color="#9de0dc"/></linearGradient></defs><path class="cls-1" d="M224.22,194.11a3,3,0,0,0-5.2,0l-1.88,3.26-25.37-14.65V116a6,6,0,0,0-3-5.2L131,77.47V48.18h3.76a3,3,0,0,0,2.6-4.51L125,22.27l-12.36,21.4a3,3,0,0,0,2.6,4.51H119V77.47L61.24,110.82a6,6,0,0,0-3,5.2v66.7L32.86,197.37,31,194.11a3,3,0,0,0-5.2,0L13.43,215.52H38.14a3,3,0,0,0,2.6-4.5l-1.88-3.26,25.38-14.65L122,226.46a6,6,0,0,0,6,0l57.76-33.35,25.38,14.65L209.26,211a3,3,0,0,0,2.6,4.5h24.71Zm-44.45-74.63v56.31L131,147.64V91.33Zm-109.53,0L119,91.33v56.31L70.24,175.79ZM125,214.34,76.24,186.18,125,158l48.77,28.15Z"/></svg>