<?xml version="1.0" encoding="utf-8"?>
<!-- Generator: Adobe Illustrator 26.0.1, SVG Export Plug-In . SVG Version: 6.00 Build 0)  -->
<svg version="1.1" id="Layer_1" xmlns="http://www.w3.org/2000/svg" xmlns:xlink="http://www.w3.org/1999/xlink" x="0px" y="0px"
	 viewBox="0 0 250 250" style="enable-background:new 0 0 250 250;" xml:space="preserve">
<path d="M181.9,117.1c-6.1-4.8-14.2-7.7-23.1-7.7c-8.9,0-17,2.9-23.1,7.7c-6.2,4.9-10.3,11.7-10.7,19.5c-0.5,8,3,15.4,9,21
	c6.2,5.6,15,9.1,24.8,9.1s18.6-3.5,24.8-9.1c6.1-5.5,9.5-12.9,9-21C192.2,128.8,188.1,121.9,181.9,117.1z"/>
<path d="M238.9,135.1c-1.3-9.5-4.6-18.4-9.7-26.5c-4.6-7.5-10.6-14-17.7-19.5l0,0l-0.2-0.1c-0.1-0.1-0.3-0.3-0.4-0.4l-74.2-55
	c-4.5-3.6-11-2.9-14.6,1.6s-2.9,11,1.6,14.6l31.2,23.1H54.7c-7.2,0-13,5.9-13,13c0,7.2,5.9,13,13,13H92l-77,65.6
	c-5.5,4.7-6.1,12.9-1.4,18.4c2.6,3,6.2,4.5,9.9,4.5c3,0,6-1,8.5-3.1l46.6-40c-0.1,4.2-0.2,8-0.2,9.2c0,18.3,20.6,65.2,81.4,65.2
	c43.3,0,79.6-26,79.6-69.1C239.8,144.8,239.6,139.9,238.9,135.1z M205.9,151.8c-2.1,5.7-5.5,11-10.1,15.6
	c-9.4,9.5-22.6,14.8-36.9,14.9c-14.3,0-27.5-5.3-36.9-14.8c-4.6-4.6-8-9.9-10.1-15.6c-2-5.5-2.8-11.4-2.3-17.4
	c0.5-5.8,2.2-11.3,5.1-16.4c2.8-4.9,6.5-9.4,11.2-13.1c9.2-7.4,20.8-11.3,33-11.4c12.2,0,23.9,3.9,33,11.3
	c4.7,3.8,8.5,8.2,11.2,13.1c2.8,5,4.6,10.5,5.1,16.3C208.7,140.4,207.9,146.3,205.9,151.8z"/>
</svg>
