<svg id="图层_1" data-name="图层 1" xmlns="http://www.w3.org/2000/svg" viewBox="0 0 250 250"><defs><style>.cls-1{fill:#1d1d1b;}</style></defs><path class="cls-1" d="M185,102.51a16.2,16.2,0,0,0-9.37,4.11c-10.44,8.89-10.62,29.87.68,38a20.33,20.33,0,0,0,14.55,3.53c5.38-.6,8.34-4.6,10.08-6h.3v.6l1,4.43,5.35,0,0-23.48H190.05l0,7.12h10c-1.86,14.59-23.13,13.74-23.1-3.5,0-8.44,2-17.2,11.73-17.7,4.36-.24,6.77,1.29,8.51,3.63A8.21,8.21,0,0,1,199,117l8.6,0c-.25-6.9-7.44-12-9.73-13-3.8-1.65-8.75-1.77-12.84-1.39"/><polygon class="cls-1" points="215.34 103.46 215.34 147.3 245.31 147.25 245.31 139.49 223.96 139.49 223.96 103.46 215.34 103.46"/><path class="cls-1" d="M152.14,114.49a7.94,7.94,0,0,0-4.69,1.57,24,24,0,0,0-3.72,4.1v-4.9H139.5v32.09l4.58,0s0-16.82,0-17.56c-.25-7,3.08-10.58,8.4-10.78,3.08-.12,5.61,2.43,5.61,6.39,0,1.45,0,21.89,0,21.89l4.85,0s0-10.71,0-15.86c0-10,0-17-10.82-17"/><path class="cls-1" d="M152.89,79.24C91.62,56.44,2,81.75,4.76,126.2c2.56,41.24,73.2,53.35,91.33,53.1,30.69-.35,62-4.2,88-26.56.31-.39-.22-.25-.22-.22-5.63,5-60.57,31.92-124,1.75-2-.93-8.94-6.41-8.94-6.41a51.11,51.11,0,0,0,6.82.49c4.54-.15,8-2.36,10.85-5.36,9.61-10.16,8.5-32.88-5.55-39.36-3.4-1.58-8.53-1.33-12.71-.91-.11.12-.13.12,0,0h0a41.87,41.87,0,0,1,7.15-5.44C65.89,92.11,88.88,81.41,119.82,82c13.7.23,38,.9,60.83,13.19.71.35,3.87,2.25,3.87,2.72l.29-.09c-1.72-1.34-9.65-10.29-31.92-18.54M53.67,107.3a13.65,13.65,0,0,1,9.32,2C73.76,117,71.51,143,56.43,143.62c-17.61.79-18.37-25.44-9.66-32.89a13.85,13.85,0,0,1,6.9-3.43"/><path class="cls-1" d="M79.4,115.53v44.54l4.81,0V144.28l.27,0c2.14,3.46,5.81,4,7.93,4s6.35,0,9.14-5.2c5.77-10.94,3.73-28.59-8.9-28.59a9.43,9.43,0,0,0-8.48,5.34l-.39,0v-4.31Zm4.48,16.74C84.29,116.48,93,118,96.6,120.44c5.5,3.63,5,23.48-4.43,23.49-8.31,0-8.33-10-8.29-11.66"/><path class="cls-1" d="M134.58,133c-.15-1.49-.23-4.82-.56-6.19-2.1-8.29-4.41-12.48-13.19-12.29a11.84,11.84,0,0,0-8.42,3.91c-8,9.26-4.71,31.57,9.85,29.88,2.87-.3,9.58-.9,11.69-10.85h-4.49a8.08,8.08,0,0,1-13.77,4,8.18,8.18,0,0,1-2.07-3.83,16.09,16.09,0,0,1-.42-4.63Zm-21.42-4.11c.15-5,3.09-10,7.82-10,5.75,0,8.52,3.63,8.52,10Z"/></svg>