<svg id="Layer_1" data-name="Layer 1" xmlns="http://www.w3.org/2000/svg" xmlns:xlink="http://www.w3.org/1999/xlink" viewBox="0 0 250 250"><defs><style>.cls-1{fill:url(#linear-gradient);}.cls-2{fill:url(#linear-gradient-2);}.cls-3{fill:url(#linear-gradient-3);}.cls-4{fill:url(#linear-gradient-4);}</style><linearGradient id="linear-gradient" x1="14.02" y1="169.97" x2="235.98" y2="169.97" gradientUnits="userSpaceOnUse"><stop offset="0" stop-color="#93c6d1"/><stop offset="1" stop-color="#77c3db"/></linearGradient><linearGradient id="linear-gradient-2" x1="19.15" y1="92.09" x2="231.46" y2="92.09" xlink:href="#linear-gradient"/><linearGradient id="linear-gradient-3" x1="18.44" y1="100.73" x2="232.37" y2="100.73" xlink:href="#linear-gradient"/><linearGradient id="linear-gradient-4" x1="18.17" y1="100.73" x2="232.42" y2="100.73" xlink:href="#linear-gradient"/></defs><path class="cls-1" d="M233.66,150.28c-.63-.49-15.6-11.85-43.12-11.85a87.5,87.5,0,0,0-26.82,4c-7.82-3.67-20.85-8-38.72-8s-30.9,4.34-38.72,8a87.5,87.5,0,0,0-26.82-4c-27.52,0-42.49,11.36-43.12,11.85A6,6,0,0,0,14,155V189.7a6,6,0,0,0,6,6h55.3v3.8a6,6,0,0,0,6,6h87.36a6,6,0,0,0,6-6v-3.8H230a6,6,0,0,0,6-6V155A6,6,0,0,0,233.66,150.28ZM26,183.7V158.3c4.64-2.63,16-7.87,33.44-7.87A79.71,79.71,0,0,1,75.33,152c0,.07,0,.13,0,.2V183.7Zm136.66,9.8H87.32V155.43c5-2.9,17.86-9,37.68-9s32.7,6.1,37.68,9Zm61.3-9.8h-49.3V152.17c0-.07,0-.13,0-.2a79.71,79.71,0,0,1,15.87-1.54c17.42,0,28.82,5.25,33.44,7.87Z"/><path class="cls-2" d="M125,120.59a28.5,28.5,0,1,0-28.5-28.5A28.53,28.53,0,0,0,125,120.59Zm0-45a16.5,16.5,0,1,1-16.5,16.49A16.51,16.51,0,0,1,125,75.6Z"/><path class="cls-3" d="M190.54,124.59a23.86,23.86,0,1,0-23.86-23.86A23.88,23.88,0,0,0,190.54,124.59Zm0-35.72a11.86,11.86,0,1,1-11.86,11.86A11.87,11.87,0,0,1,190.54,88.87Z"/><path class="cls-4" d="M59.46,124.59a23.86,23.86,0,1,0-23.85-23.86A23.88,23.88,0,0,0,59.46,124.59Zm0-35.72a11.86,11.86,0,1,1-11.85,11.86A11.87,11.87,0,0,1,59.46,88.87Z"/></svg>