<svg id="Layer_1" data-name="Layer 1" xmlns="http://www.w3.org/2000/svg" xmlns:xlink="http://www.w3.org/1999/xlink" viewBox="0 0 250 250"><defs><style>.cls-1{fill:url(#linear-gradient);}.cls-2{fill:url(#linear-gradient-2);}.cls-3{fill:url(#linear-gradient-3);}.cls-4{fill:url(#linear-gradient-4);}</style><linearGradient id="linear-gradient" x1="10.02" y1="169.97" x2="239.98" y2="169.97" gradientUnits="userSpaceOnUse"><stop offset="0" stop-color="#afcee0"/><stop offset="1" stop-color="#c7eae6"/></linearGradient><linearGradient id="linear-gradient-2" x1="34.64" y1="92.09" x2="216.52" y2="92.09" xlink:href="#linear-gradient"/><linearGradient id="linear-gradient-3" x1="34.23" y1="100.73" x2="217.27" y2="100.73" xlink:href="#linear-gradient"/><linearGradient id="linear-gradient-4" x1="31.61" y1="100.73" x2="216.9" y2="100.73" xlink:href="#linear-gradient"/></defs><path class="cls-1" d="M236.11,147.12a53.24,53.24,0,0,0-12.48-6.68,88.87,88.87,0,0,0-33.09-6A92.14,92.14,0,0,0,164,138.17c-.87-.38-1.77-.77-2.74-1.15A98.84,98.84,0,0,0,125,130.44,98.84,98.84,0,0,0,88.75,137c-1,.38-1.87.77-2.74,1.15a92.14,92.14,0,0,0-26.55-3.74,88.87,88.87,0,0,0-33.09,6,53.24,53.24,0,0,0-12.48,6.68A10,10,0,0,0,10,155V189.7a10,10,0,0,0,10,10H71.33a10,10,0,0,0,10,9.8h87.36a10,10,0,0,0,10-9.8H230a10,10,0,0,0,10-10V155A10,10,0,0,0,236.11,147.12ZM30,160.67c5.06-2.54,14.93-6.24,29.44-6.24a78.57,78.57,0,0,1,11.86.89V179.7H30ZM158.68,189.5H91.32V157.76c5.54-2.87,16.84-7.32,33.68-7.32s28.18,4.47,33.68,7.32Zm61.3-9.8h-41.3V155.32a78.57,78.57,0,0,1,11.86-.89c14.51,0,24.38,3.7,29.44,6.24Z"/><path class="cls-2" d="M125,124.59a32.5,32.5,0,1,0-32.5-32.5A32.54,32.54,0,0,0,125,124.59Zm0-45a12.5,12.5,0,1,1-12.5,12.49A12.51,12.51,0,0,1,125,79.6Z"/><path class="cls-3" d="M190.54,128.59a27.86,27.86,0,1,0-27.86-27.86A27.89,27.89,0,0,0,190.54,128.59Zm0-35.72a7.86,7.86,0,1,1-7.86,7.86A7.87,7.87,0,0,1,190.54,92.87Z"/><path class="cls-4" d="M59.46,128.59a27.86,27.86,0,1,0-27.85-27.86A27.89,27.89,0,0,0,59.46,128.59Zm0-35.72a7.86,7.86,0,1,1-7.85,7.86A7.87,7.87,0,0,1,59.46,92.87Z"/></svg>