<svg id="Layer_1" data-name="Layer 1" xmlns="http://www.w3.org/2000/svg" xmlns:xlink="http://www.w3.org/1999/xlink" viewBox="0 0 250 250"><defs><style>.cls-1{fill:url(#linear-gradient);}.cls-2{fill:url(#linear-gradient-2);}</style><linearGradient id="linear-gradient" x1="84.64" y1="125" x2="165.33" y2="125" gradientUnits="userSpaceOnUse"><stop offset="0" stop-color="#afcee0"/><stop offset="1" stop-color="#c7eae6"/></linearGradient><linearGradient id="linear-gradient-2" x1="18.25" x2="231.73" xlink:href="#linear-gradient"/></defs><path class="cls-1" d="M125,165.34A40.34,40.34,0,1,1,165.33,125,40.39,40.39,0,0,1,125,165.34Zm0-60.68A20.34,20.34,0,1,0,145.33,125,20.37,20.37,0,0,0,125,104.66Z"/><path class="cls-2" d="M139.52,231.74H110.46a10,10,0,0,1-9.94-9l-2-19.2a81.15,81.15,0,0,1-10.39-4.3l-15,12.17a10,10,0,0,1-13.38-.69L39.24,190.2a10,10,0,0,1-.69-13.37l12.17-15a81.4,81.4,0,0,1-4.3-10.39l-19.2-2a10,10,0,0,1-9-9.95V110.47a10,10,0,0,1,9-9.94l19.2-2a82.61,82.61,0,0,1,4.3-10.39l-12.17-15a10,10,0,0,1,.69-13.37L59.79,39.25a10,10,0,0,1,13.38-.69l15,12.17a81.15,81.15,0,0,1,10.39-4.3l2-19.2a10,10,0,0,1,9.94-9h29.06a10,10,0,0,1,9.95,9l2,19.2a82.61,82.61,0,0,1,10.39,4.3l15-12.17a10,10,0,0,1,13.37.69L210.74,59.8a10,10,0,0,1,.69,13.38l-12.17,15a82.61,82.61,0,0,1,4.3,10.39l19.2,2a10,10,0,0,1,9,9.94v29.06a10,10,0,0,1-9,9.95l-19.2,2a82.61,82.61,0,0,1-4.3,10.39l12.17,15a10,10,0,0,1-.69,13.38l-20.55,20.55a10,10,0,0,1-13.37.69l-15-12.17a82.61,82.61,0,0,1-10.39,4.3l-2,19.2A10,10,0,0,1,139.52,231.74Zm-20-20h11l1.75-16.93a10,10,0,0,1,7.59-8.69,62.28,62.28,0,0,0,17.87-7.39,10,10,0,0,1,11.52.77l13.2,10.73,7.79-7.79-10.73-13.2a10,10,0,0,1-.77-11.52,62.34,62.34,0,0,0,7.39-17.86,10,10,0,0,1,8.69-7.6l16.93-1.75v-11l-16.93-1.75a10,10,0,0,1-8.69-7.59,62.28,62.28,0,0,0-7.39-17.87,10,10,0,0,1,.77-11.52l10.73-13.2-7.79-7.79L169.23,70.5a10,10,0,0,1-11.52.77,62.28,62.28,0,0,0-17.87-7.39,10,10,0,0,1-7.59-8.69L130.5,38.26h-11l-1.75,16.93a10,10,0,0,1-7.59,8.69,62.28,62.28,0,0,0-17.87,7.39,10,10,0,0,1-11.52-.77L67.55,59.77l-7.79,7.79,10.73,13.2a10,10,0,0,1,.77,11.52,62.28,62.28,0,0,0-7.39,17.87,10,10,0,0,1-8.69,7.59l-16.93,1.75v11l16.93,1.75a10,10,0,0,1,8.69,7.6,62.34,62.34,0,0,0,7.39,17.86,10,10,0,0,1-.77,11.52l-10.73,13.2,7.79,7.79,13.2-10.73a10,10,0,0,1,11.52-.77,62.28,62.28,0,0,0,17.87,7.39,10,10,0,0,1,7.59,8.69Zm102.25-72.21h0Z"/></svg>