<svg id="Layer_1" data-name="Layer 1" xmlns="http://www.w3.org/2000/svg" xmlns:xlink="http://www.w3.org/1999/xlink" viewBox="0 0 250 250"><defs><style>.cls-1{fill:url(#linear-gradient);}.cls-2{fill:url(#linear-gradient-2);}</style><linearGradient id="linear-gradient" x1="22.25" y1="125" x2="227.73" y2="125" gradientUnits="userSpaceOnUse"><stop offset="0" stop-color="#93c6d1"/><stop offset="1" stop-color="#77c3db"/></linearGradient><linearGradient id="linear-gradient-2" x1="26.51" x2="223.94" xlink:href="#linear-gradient"/></defs><path class="cls-1" d="M222.34,104.51l-21.8-2.26a78.52,78.52,0,0,0-6-14.59l13.82-17a6,6,0,0,0-.42-8L187.36,42.08a6,6,0,0,0-8-.41l-17,13.81a78.52,78.52,0,0,0-14.59-6l-2.25-21.81a6,6,0,0,0-6-5.38H110.46a6,6,0,0,0-6,5.38l-2.26,21.81a78.52,78.52,0,0,0-14.59,6l-17-13.82a6,6,0,0,0-8,.42L42.07,62.62a6,6,0,0,0-.41,8l13.81,17a78.52,78.52,0,0,0-6,14.59l-21.81,2.26a6,6,0,0,0-5.38,6v29.06a6,6,0,0,0,5.38,6l21.81,2.25a78.52,78.52,0,0,0,6,14.59l-13.81,17a6,6,0,0,0,.41,8l20.55,20.54a6,6,0,0,0,8,.42l17-13.82a78.52,78.52,0,0,0,14.59,6l2.26,21.81a6,6,0,0,0,6,5.38h29.06a6,6,0,0,0,6-5.38l2.25-21.81a78.52,78.52,0,0,0,14.59-6l17,13.81a6,6,0,0,0,8-.41l20.55-20.55a6,6,0,0,0,.42-8l-13.82-17a78.52,78.52,0,0,0,6-14.59l21.8-2.25a6,6,0,0,0,5.39-6V110.47A6,6,0,0,0,222.34,104.51Zm-6.61,29.61-20.52,2.12A6,6,0,0,0,190,140.8a66.28,66.28,0,0,1-7.87,19,6,6,0,0,0,.47,6.91l13,16-12.89,12.9-16-13a6,6,0,0,0-6.92-.47,66.28,66.28,0,0,1-19,7.87,6,6,0,0,0-4.56,5.21l-2.12,20.52H115.87l-2.12-20.52A6,6,0,0,0,109.2,190a66.22,66.22,0,0,1-19-7.87,6,6,0,0,0-6.91.47l-16,13-12.9-12.89,13-16a6,6,0,0,0,.47-6.91,66.46,66.46,0,0,1-7.87-19,6,6,0,0,0-5.21-4.56l-20.52-2.12V115.88l20.52-2.12A6,6,0,0,0,60,109.21a66.4,66.4,0,0,1,7.87-19,6,6,0,0,0-.47-6.91l-13-16,12.9-12.89,16,13a6,6,0,0,0,6.91.47,66.22,66.22,0,0,1,19-7.87,6,6,0,0,0,4.55-5.21l2.12-20.52h18.24l2.12,20.52A6,6,0,0,0,140.79,60a66.28,66.28,0,0,1,19,7.87,6,6,0,0,0,6.92-.47l16-13,12.89,12.9-13,16a6,6,0,0,0-.47,6.91,66.22,66.22,0,0,1,7.87,19,6,6,0,0,0,5.21,4.55l20.52,2.12Z"/><path class="cls-2" d="M125,89.64A35.36,35.36,0,1,0,160.36,125,35.4,35.4,0,0,0,125,89.64Zm0,58.72A23.36,23.36,0,1,1,148.36,125,23.39,23.39,0,0,1,125,148.36Z"/></svg>