<svg id="Layer_1" data-name="Layer 1" xmlns="http://www.w3.org/2000/svg" viewBox="0 0 250 250"><defs><style>.cls-1{fill:#57a4d1;}</style></defs><path class="cls-1" d="M211.53,79.65a37.72,37.72,0,0,0-41.19-41.19,6,6,0,0,0-3.37,1.7l-42,42.05-42.06-42a6,6,0,0,0-8.49,0L40,74.53A6,6,0,0,0,40,83l42.05,42.05L40,167.13a6,6,0,0,0-1.76,4.24v34.38a6,6,0,0,0,6,6H78.62A6,6,0,0,0,82.86,210l127-127A6,6,0,0,0,211.53,79.65ZM52.72,78.77l25.9-25.89L116.43,90.7,90.54,116.59Zm23.41,121H50.24V173.86l98.22-98.22,25.89,25.89Zm106.7-106.7L156.94,67.16l16.92-16.92a25.86,25.86,0,0,1,25.89,25.89Z"/><path class="cls-1" d="M177.4,134.69l-8.49,8.49,28.19,28.19-25.89,25.89L143,169.07l-8.48,8.49L167,210a6,6,0,0,0,8.49,0l34.37-34.37a6,6,0,0,0,0-8.49Z"/></svg>