<svg id="Layer_1" data-name="Layer 1" xmlns="http://www.w3.org/2000/svg" xmlns:xlink="http://www.w3.org/1999/xlink" viewBox="0 0 250 250"><defs><style>.cls-1{fill:url(#linear-gradient);}.cls-2{fill:url(#linear-gradient-2);}</style><linearGradient id="linear-gradient" x1="34.24" y1="125.01" x2="215.77" y2="125.01" gradientUnits="userSpaceOnUse"><stop offset="0" stop-color="#afcee0"/><stop offset="1" stop-color="#c7eae6"/></linearGradient><linearGradient id="linear-gradient-2" x1="39.26" y1="173.83" x2="216.33" y2="173.83" xlink:href="#linear-gradient"/></defs><path class="cls-1" d="M215.48,80.26c1-7-.31-22.05-12-33.73s-26.71-13-33.74-12a10.11,10.11,0,0,0-5.61,2.82L124.92,76.58,85.69,37.35a10,10,0,0,0-14.15,0L37.17,71.73a10,10,0,0,0,0,14.14L76.4,125.1,37.17,164.33a10,10,0,0,0-2.93,7.07v34.38a10,10,0,0,0,10,10H78.62a10,10,0,0,0,7.07-2.93l127-127A10,10,0,0,0,215.48,80.26ZM58.38,78.8,78.62,58.57l32.15,32.16L90.54,111Zm16.09,117H54.24V175.54l94.22-94.21,20.23,20.23ZM182.83,87.42,162.6,67.18l12.86-12.86a21.85,21.85,0,0,1,20.23,20.24Z"/><path class="cls-2" d="M180.22,131.89,166.08,146l25.37,25.37-20.24,20.23-25.36-25.36-14.14,14.14,32.43,32.44a10,10,0,0,0,14.15,0l34.37-34.38a10,10,0,0,0,0-14.14Z"/></svg>